<svg width="308" height="121" viewBox="0 0 308 121" fill="none" xmlns="http://www.w3.org/2000/svg">
<path d="M25.5 120.636H295.5C301.927 120.636 307.136 115.427 307.136 109V19C307.136 12.5734 301.927 7.36364 295.5 7.36364H35.7225C34.8849 7.36364 34.0496 7.27854 33.2293 7.10965L6.21268 1.5474C4.09967 1.11237 2.38712 3.26094 3.28244 5.22371L12.7487 25.9766C13.4834 27.5874 13.8636 29.3372 13.8636 31.1076V109C13.8636 115.427 19.0734 120.636 25.5 120.636Z" stroke="white" stroke-width="0.727273"/>
<path d="M34.584 45V32.616H35.898V45H34.584ZM35.448 45V43.794H42.738V45H35.448ZM35.448 39.24V38.07H42.162V39.24H35.448ZM35.448 33.822V32.616H42.63V33.822H35.448ZM51.0336 45V40.032C51.0336 39.288 50.8116 38.688 50.3676 38.232C49.9356 37.764 49.3596 37.53 48.6396 37.53C48.1476 37.53 47.7156 37.638 47.3436 37.854C46.9716 38.07 46.6776 38.364 46.4616 38.736C46.2456 39.108 46.1376 39.534 46.1376 40.014L45.5616 39.69C45.5616 39.054 45.7116 38.484 46.0116 37.98C46.3116 37.476 46.7136 37.08 47.2176 36.792C47.7336 36.504 48.3216 36.36 48.9816 36.36C49.6296 36.36 50.2056 36.516 50.7096 36.828C51.2136 37.14 51.6036 37.56 51.8796 38.088C52.1676 38.616 52.3116 39.192 52.3116 39.816V45H51.0336ZM44.8776 45V36.54H46.1376V45H44.8776ZM58.5746 45.18C57.7226 45.18 56.9606 44.988 56.2886 44.604C55.6166 44.22 55.0826 43.692 54.6866 43.02C54.3026 42.348 54.1106 41.592 54.1106 40.752C54.1106 39.924 54.3026 39.18 54.6866 38.52C55.0706 37.848 55.5926 37.32 56.2526 36.936C56.9126 36.552 57.6506 36.36 58.4666 36.36C59.2346 36.36 59.9126 36.534 60.5006 36.882C61.1006 37.23 61.5686 37.716 61.9046 38.34C62.2526 38.952 62.4266 39.66 62.4266 40.464C62.4266 40.56 62.4206 40.674 62.4086 40.806C62.3966 40.926 62.3726 41.07 62.3366 41.238H55.0106V40.158H61.6526L61.2026 40.554C61.2146 39.93 61.1066 39.396 60.8786 38.952C60.6626 38.496 60.3446 38.148 59.9246 37.908C59.5166 37.656 59.0186 37.53 58.4306 37.53C57.8186 37.53 57.2846 37.662 56.8286 37.926C56.3726 38.19 56.0126 38.562 55.7486 39.042C55.4966 39.51 55.3706 40.068 55.3706 40.716C55.3706 41.364 55.5026 41.934 55.7666 42.426C56.0426 42.918 56.4206 43.302 56.9006 43.578C57.3926 43.854 57.9566 43.992 58.5926 43.992C59.1086 43.992 59.5826 43.902 60.0146 43.722C60.4466 43.53 60.8126 43.248 61.1126 42.876L61.9226 43.704C61.5266 44.172 61.0346 44.538 60.4466 44.802C59.8706 45.054 59.2466 45.18 58.5746 45.18ZM64.3542 45V36.54H65.6142V45H64.3542ZM65.6142 40.068L65.0922 39.834C65.0922 38.766 65.3502 37.92 65.8662 37.296C66.3942 36.672 67.1142 36.36 68.0262 36.36C68.4462 36.36 68.8302 36.438 69.1782 36.594C69.5262 36.738 69.8502 36.972 70.1502 37.296L69.3222 38.178C69.1182 37.95 68.8902 37.788 68.6382 37.692C68.3982 37.596 68.1222 37.548 67.8102 37.548C67.1622 37.548 66.6342 37.764 66.2262 38.196C65.8182 38.616 65.6142 39.24 65.6142 40.068ZM74.6841 48.744C73.8321 48.744 73.0701 48.582 72.3981 48.258C71.7381 47.946 71.2041 47.502 70.7961 46.926L71.6241 46.098C71.9601 46.554 72.3861 46.908 72.9021 47.16C73.4181 47.412 74.0241 47.538 74.7201 47.538C75.6801 47.538 76.4421 47.28 77.0061 46.764C77.5821 46.248 77.8701 45.546 77.8701 44.658V42.552L78.1221 40.626L77.8701 38.718V36.54H79.1301V44.658C79.1301 45.474 78.9441 46.188 78.5721 46.8C78.2001 47.412 77.6781 47.886 77.0061 48.222C76.3461 48.57 75.5721 48.744 74.6841 48.744ZM74.7741 44.91C73.9941 44.91 73.2921 44.724 72.6681 44.352C72.0441 43.98 71.5521 43.47 71.1921 42.822C70.8321 42.174 70.6521 41.442 70.6521 40.626C70.6521 39.81 70.8261 39.084 71.1741 38.448C71.5341 37.8 72.0261 37.29 72.6501 36.918C73.2741 36.546 73.9761 36.36 74.7561 36.36C75.4161 36.36 76.0041 36.486 76.5201 36.738C77.0481 36.99 77.4681 37.35 77.7801 37.818C78.1041 38.274 78.3021 38.814 78.3741 39.438V41.832C78.3021 42.444 78.1041 42.984 77.7801 43.452C77.4561 43.908 77.0361 44.268 76.5201 44.532C76.0041 44.784 75.4221 44.91 74.7741 44.91ZM75.0081 43.704C75.5961 43.704 76.1061 43.578 76.5381 43.326C76.9821 43.074 77.3241 42.72 77.5641 42.264C77.8161 41.796 77.9421 41.25 77.9421 40.626C77.9421 40.014 77.8161 39.48 77.5641 39.024C77.3241 38.568 76.9821 38.208 76.5381 37.944C76.0941 37.68 75.5781 37.548 74.9901 37.548C74.4021 37.548 73.8741 37.68 73.4061 37.944C72.9501 38.208 72.5901 38.568 72.3261 39.024C72.0741 39.48 71.9481 40.014 71.9481 40.626C71.9481 41.226 72.0801 41.76 72.3441 42.228C72.6081 42.696 72.9681 43.062 73.4241 43.326C73.8801 43.578 74.4081 43.704 75.0081 43.704ZM84.4946 45.036L80.7866 36.54H82.1726L85.1606 43.632H84.6386L87.7886 36.54H89.1926L85.2146 45.036H84.4946ZM82.1906 48.564L84.5126 43.758L85.2146 45.036L83.5766 48.564H82.1906ZM95.8636 45.18C95.5636 45.18 95.3176 45.078 95.1256 44.874C94.9456 44.67 94.8556 44.43 94.8556 44.154C94.8556 43.854 94.9456 43.608 95.1256 43.416C95.3176 43.212 95.5636 43.11 95.8636 43.11C96.1516 43.11 96.3916 43.212 96.5836 43.416C96.7876 43.608 96.8896 43.854 96.8896 44.154C96.8896 44.43 96.7876 44.67 96.5836 44.874C96.3916 45.078 96.1516 45.18 95.8636 45.18ZM95.8636 39.51C95.5636 39.51 95.3176 39.408 95.1256 39.204C94.9456 39 94.8556 38.76 94.8556 38.484C94.8556 38.184 94.9456 37.938 95.1256 37.746C95.3176 37.554 95.5636 37.458 95.8636 37.458C96.1516 37.458 96.3916 37.554 96.5836 37.746C96.7876 37.938 96.8896 38.184 96.8896 38.484C96.8896 38.76 96.7876 39 96.5836 39.204C96.3916 39.408 96.1516 39.51 95.8636 39.51ZM105.41 45V32.616H106.706V45H105.41ZM102.8 33.786V32.616H106.526V33.786H102.8ZM110.844 45.18C110.544 45.18 110.298 45.078 110.106 44.874C109.914 44.67 109.818 44.424 109.818 44.136C109.818 43.848 109.914 43.608 110.106 43.416C110.298 43.212 110.544 43.11 110.844 43.11C111.132 43.11 111.372 43.212 111.564 43.416C111.756 43.608 111.852 43.848 111.852 44.136C111.852 44.424 111.756 44.67 111.564 44.874C111.372 45.078 111.132 45.18 110.844 45.18ZM113.454 40.896L118.08 32.616H119.556L114.858 40.896H113.454ZM113.454 41.724V40.896L114.012 40.536H122.832V41.724H113.454ZM119.7 45V36.738H120.996V45H119.7ZM130.242 45L125.922 40.662L130.17 36.54H131.736L127.11 40.986L127.146 40.266L131.916 45H130.242ZM124.788 45V32.256H126.048V45H124.788ZM135.214 45L131.956 36.54H133.27L135.844 43.56L135.376 43.578L137.932 36.54H138.67L141.226 43.578L140.758 43.56L143.314 36.54H144.646L141.37 45H140.632L138.022 38.07H138.562L135.97 45H135.214ZM152.442 45V40.032C152.442 39.288 152.22 38.688 151.776 38.232C151.344 37.764 150.768 37.53 150.048 37.53C149.556 37.53 149.124 37.638 148.752 37.854C148.38 38.07 148.086 38.364 147.87 38.736C147.654 39.108 147.546 39.534 147.546 40.014L146.97 39.69C146.97 39.054 147.12 38.484 147.42 37.98C147.72 37.476 148.122 37.08 148.626 36.792C149.142 36.504 149.73 36.36 150.39 36.36C151.038 36.36 151.614 36.51 152.118 36.81C152.622 37.098 153.012 37.5 153.288 38.016C153.576 38.532 153.72 39.132 153.72 39.816V45H152.442ZM146.286 45V32.256H147.546V45H146.286ZM159.944 41.04V39.834H165.686V41.04H159.944ZM171.497 44.19L176.087 39.402C176.615 38.838 177.023 38.364 177.311 37.98C177.611 37.596 177.815 37.248 177.923 36.936C178.043 36.612 178.103 36.276 178.103 35.928C178.103 35.22 177.881 34.668 177.437 34.272C176.993 33.864 176.405 33.66 175.673 33.66C175.001 33.66 174.413 33.822 173.909 34.146C173.405 34.458 172.955 34.932 172.559 35.568L171.641 34.758C172.121 34.002 172.697 33.426 173.369 33.03C174.041 32.634 174.821 32.436 175.709 32.436C176.453 32.436 177.101 32.58 177.653 32.868C178.217 33.156 178.649 33.564 178.949 34.092C179.261 34.62 179.417 35.238 179.417 35.946C179.417 36.438 179.351 36.888 179.219 37.296C179.087 37.692 178.853 38.112 178.517 38.556C178.193 38.988 177.731 39.516 177.131 40.14L173.243 44.136L171.497 44.19ZM171.497 45V44.19L172.577 43.812H179.723V45H171.497ZM183.143 45.18C182.843 45.18 182.597 45.078 182.405 44.874C182.213 44.67 182.117 44.424 182.117 44.136C182.117 43.848 182.213 43.608 182.405 43.416C182.597 43.212 182.843 43.11 183.143 43.11C183.431 43.11 183.671 43.212 183.863 43.416C184.055 43.608 184.151 43.848 184.151 44.136C184.151 44.424 184.055 44.67 183.863 44.874C183.671 45.078 183.431 45.18 183.143 45.18ZM190.2 45.18C189.408 45.18 188.682 45.024 188.022 44.712C187.374 44.4 186.828 43.95 186.384 43.362L187.266 42.48C187.566 42.936 187.974 43.296 188.49 43.56C189.006 43.812 189.57 43.938 190.182 43.938C190.782 43.938 191.298 43.824 191.73 43.596C192.174 43.368 192.516 43.05 192.756 42.642C193.008 42.222 193.134 41.736 193.134 41.184C193.134 40.62 193.008 40.134 192.756 39.726C192.516 39.318 192.168 39 191.712 38.772C191.268 38.544 190.734 38.43 190.11 38.43C189.906 38.43 189.696 38.442 189.48 38.466C189.276 38.49 189.072 38.532 188.868 38.592L189.372 37.854C189.576 37.746 189.798 37.662 190.038 37.602C190.278 37.542 190.542 37.512 190.83 37.512C191.514 37.512 192.132 37.674 192.684 37.998C193.236 38.31 193.668 38.748 193.98 39.312C194.304 39.864 194.466 40.506 194.466 41.238C194.466 42.018 194.286 42.702 193.926 43.29C193.566 43.878 193.062 44.34 192.414 44.676C191.778 45.012 191.04 45.18 190.2 45.18ZM188.868 38.592V37.782L192.792 33.372L194.322 33.426L190.326 37.89L188.868 38.592ZM186.924 33.786V32.616H194.322V33.426L193.188 33.786H186.924ZM202.101 45L197.781 40.662L202.029 36.54H203.595L198.969 40.986L199.005 40.266L203.775 45H202.101ZM196.647 45V32.256H197.907V45H196.647ZM207.074 45L203.816 36.54H205.13L207.704 43.56L207.236 43.578L209.792 36.54H210.53L213.086 43.578L212.618 43.56L215.174 36.54H216.506L213.23 45H212.492L209.882 38.07H210.422L207.83 45H207.074ZM224.301 45V40.032C224.301 39.288 224.079 38.688 223.635 38.232C223.203 37.764 222.627 37.53 221.907 37.53C221.415 37.53 220.983 37.638 220.611 37.854C220.239 38.07 219.945 38.364 219.729 38.736C219.513 39.108 219.405 39.534 219.405 40.014L218.829 39.69C218.829 39.054 218.979 38.484 219.279 37.98C219.579 37.476 219.981 37.08 220.485 36.792C221.001 36.504 221.589 36.36 222.249 36.36C222.897 36.36 223.473 36.51 223.977 36.81C224.481 37.098 224.871 37.5 225.147 38.016C225.435 38.532 225.579 39.132 225.579 39.816V45H224.301ZM218.145 45V32.256H219.405V45H218.145ZM38.598 73L33.666 60.616H35.106L39.372 71.542H38.85L43.152 60.616H44.556L39.588 73H38.598ZM48.4304 73.18C47.6144 73.18 46.8704 72.982 46.1984 72.586C45.5384 72.19 45.0104 71.656 44.6144 70.984C44.2304 70.312 44.0384 69.562 44.0384 68.734C44.0384 67.918 44.2304 67.18 44.6144 66.52C45.0104 65.86 45.5384 65.338 46.1984 64.954C46.8704 64.558 47.6144 64.36 48.4304 64.36C49.2584 64.36 50.0024 64.552 50.6624 64.936C51.3224 65.32 51.8444 65.848 52.2284 66.52C52.6244 67.18 52.8224 67.918 52.8224 68.734C52.8224 69.574 52.6244 70.33 52.2284 71.002C51.8444 71.662 51.3224 72.19 50.6624 72.586C50.0024 72.982 49.2584 73.18 48.4304 73.18ZM48.4304 71.956C49.0304 71.956 49.5584 71.818 50.0144 71.542C50.4824 71.266 50.8484 70.882 51.1124 70.39C51.3884 69.898 51.5264 69.346 51.5264 68.734C51.5264 68.122 51.3884 67.582 51.1124 67.114C50.8484 66.634 50.4824 66.256 50.0144 65.98C49.5584 65.704 49.0304 65.566 48.4304 65.566C47.8424 65.566 47.3144 65.704 46.8464 65.98C46.3784 66.256 46.0124 66.634 45.7484 67.114C45.4844 67.582 45.3524 68.122 45.3524 68.734C45.3524 69.358 45.4844 69.916 45.7484 70.408C46.0124 70.888 46.3784 71.266 46.8464 71.542C47.3144 71.818 47.8424 71.956 48.4304 71.956ZM54.8268 73V60.256H56.0868V73H54.8268ZM59.9553 73V60.976H61.2153V73H59.9553ZM57.8133 65.674V64.54H63.3393V65.674H57.8133ZM68.448 73.18C67.644 73.18 66.924 72.988 66.288 72.604C65.652 72.208 65.148 71.68 64.776 71.02C64.416 70.36 64.236 69.616 64.236 68.788C64.236 67.948 64.416 67.198 64.776 66.538C65.148 65.866 65.652 65.338 66.288 64.954C66.924 64.558 67.638 64.36 68.43 64.36C69.078 64.36 69.654 64.492 70.158 64.756C70.674 65.008 71.088 65.368 71.4 65.836C71.724 66.292 71.922 66.826 71.994 67.438V70.084C71.922 70.696 71.724 71.236 71.4 71.704C71.088 72.172 70.674 72.538 70.158 72.802C69.654 73.054 69.084 73.18 68.448 73.18ZM68.646 71.974C69.522 71.974 70.224 71.68 70.752 71.092C71.292 70.504 71.562 69.73 71.562 68.77C71.562 68.134 71.436 67.576 71.184 67.096C70.944 66.604 70.602 66.226 70.158 65.962C69.726 65.686 69.216 65.548 68.628 65.548C68.028 65.548 67.494 65.686 67.026 65.962C66.57 66.238 66.204 66.622 65.928 67.114C65.664 67.594 65.532 68.146 65.532 68.77C65.532 69.394 65.664 69.946 65.928 70.426C66.204 70.906 66.576 71.284 67.044 71.56C67.512 71.836 68.046 71.974 68.646 71.974ZM71.49 73V70.732L71.742 68.644L71.49 66.61V64.54H72.75V73H71.49ZM78.7973 76.744C77.9453 76.744 77.1833 76.582 76.5113 76.258C75.8513 75.946 75.3173 75.502 74.9093 74.926L75.7373 74.098C76.0733 74.554 76.4993 74.908 77.0153 75.16C77.5313 75.412 78.1373 75.538 78.8333 75.538C79.7933 75.538 80.5553 75.28 81.1193 74.764C81.6953 74.248 81.9833 73.546 81.9833 72.658V70.552L82.2353 68.626L81.9833 66.718V64.54H83.2433V72.658C83.2433 73.474 83.0573 74.188 82.6853 74.8C82.3133 75.412 81.7913 75.886 81.1193 76.222C80.4593 76.57 79.6853 76.744 78.7973 76.744ZM78.8873 72.91C78.1073 72.91 77.4053 72.724 76.7813 72.352C76.1573 71.98 75.6653 71.47 75.3053 70.822C74.9453 70.174 74.7653 69.442 74.7653 68.626C74.7653 67.81 74.9393 67.084 75.2873 66.448C75.6473 65.8 76.1393 65.29 76.7633 64.918C77.3873 64.546 78.0893 64.36 78.8693 64.36C79.5293 64.36 80.1173 64.486 80.6333 64.738C81.1613 64.99 81.5813 65.35 81.8933 65.818C82.2173 66.274 82.4153 66.814 82.4873 67.438V69.832C82.4153 70.444 82.2173 70.984 81.8933 71.452C81.5693 71.908 81.1493 72.268 80.6333 72.532C80.1173 72.784 79.5353 72.91 78.8873 72.91ZM79.1213 71.704C79.7093 71.704 80.2193 71.578 80.6513 71.326C81.0953 71.074 81.4373 70.72 81.6773 70.264C81.9293 69.796 82.0553 69.25 82.0553 68.626C82.0553 68.014 81.9293 67.48 81.6773 67.024C81.4373 66.568 81.0953 66.208 80.6513 65.944C80.2073 65.68 79.6913 65.548 79.1033 65.548C78.5153 65.548 77.9873 65.68 77.5193 65.944C77.0633 66.208 76.7033 66.568 76.4393 67.024C76.1873 67.48 76.0613 68.014 76.0613 68.626C76.0613 69.226 76.1933 69.76 76.4573 70.228C76.7213 70.696 77.0813 71.062 77.5373 71.326C77.9933 71.578 78.5213 71.704 79.1213 71.704ZM89.6879 73.18C88.8359 73.18 88.0739 72.988 87.4019 72.604C86.7299 72.22 86.1959 71.692 85.7999 71.02C85.4159 70.348 85.2239 69.592 85.2239 68.752C85.2239 67.924 85.4159 67.18 85.7999 66.52C86.1839 65.848 86.7059 65.32 87.3659 64.936C88.0259 64.552 88.7639 64.36 89.5799 64.36C90.3479 64.36 91.0259 64.534 91.6139 64.882C92.2139 65.23 92.6819 65.716 93.0179 66.34C93.3659 66.952 93.5399 67.66 93.5399 68.464C93.5399 68.56 93.5339 68.674 93.5219 68.806C93.5099 68.926 93.4859 69.07 93.4499 69.238H86.1239V68.158H92.7659L92.3159 68.554C92.3279 67.93 92.2199 67.396 91.9919 66.952C91.7759 66.496 91.4579 66.148 91.0379 65.908C90.6299 65.656 90.1319 65.53 89.5439 65.53C88.9319 65.53 88.3979 65.662 87.9419 65.926C87.4859 66.19 87.1259 66.562 86.8619 67.042C86.6099 67.51 86.4839 68.068 86.4839 68.716C86.4839 69.364 86.6159 69.934 86.8799 70.426C87.1559 70.918 87.5339 71.302 88.0139 71.578C88.5059 71.854 89.0699 71.992 89.7059 71.992C90.2219 71.992 90.6959 71.902 91.1279 71.722C91.5599 71.53 91.9259 71.248 92.2259 70.876L93.0359 71.704C92.6399 72.172 92.1479 72.538 91.5599 72.802C90.9839 73.054 90.3599 73.18 89.6879 73.18ZM100.487 73.18C100.187 73.18 99.9406 73.078 99.7486 72.874C99.5686 72.67 99.4786 72.43 99.4786 72.154C99.4786 71.854 99.5686 71.608 99.7486 71.416C99.9406 71.212 100.187 71.11 100.487 71.11C100.775 71.11 101.015 71.212 101.207 71.416C101.411 71.608 101.513 71.854 101.513 72.154C101.513 72.43 101.411 72.67 101.207 72.874C101.015 73.078 100.775 73.18 100.487 73.18ZM100.487 67.51C100.187 67.51 99.9406 67.408 99.7486 67.204C99.5686 67 99.4786 66.76 99.4786 66.484C99.4786 66.184 99.5686 65.938 99.7486 65.746C99.9406 65.554 100.187 65.458 100.487 65.458C100.775 65.458 101.015 65.554 101.207 65.746C101.411 65.938 101.513 66.184 101.513 66.484C101.513 66.76 101.411 67 101.207 67.204C101.015 67.408 100.775 67.51 100.487 67.51ZM107.459 68.896L112.085 60.616H113.561L108.863 68.896H107.459ZM107.459 69.724V68.896L108.017 68.536H116.837V69.724H107.459ZM113.705 73V64.738H115.001V73H113.705ZM122.592 73.18C121.8 73.18 121.08 72.994 120.432 72.622C119.796 72.238 119.286 71.728 118.902 71.092C118.53 70.456 118.344 69.748 118.344 68.968C118.344 67.912 118.71 66.88 119.442 65.872L123.33 60.616H124.878L121.026 65.71L120.558 65.89C120.726 65.674 120.918 65.494 121.134 65.35C121.362 65.194 121.62 65.074 121.908 64.99C122.196 64.906 122.526 64.864 122.898 64.864C123.63 64.864 124.296 65.044 124.896 65.404C125.496 65.752 125.976 66.232 126.336 66.844C126.696 67.456 126.876 68.152 126.876 68.932C126.876 69.712 126.684 70.426 126.3 71.074C125.916 71.71 125.4 72.22 124.752 72.604C124.104 72.988 123.384 73.18 122.592 73.18ZM122.61 71.956C123.15 71.956 123.642 71.824 124.086 71.56C124.542 71.284 124.902 70.918 125.166 70.462C125.43 69.994 125.562 69.484 125.562 68.932C125.562 68.368 125.43 67.858 125.166 67.402C124.902 66.946 124.542 66.586 124.086 66.322C123.642 66.046 123.15 65.908 122.61 65.908C122.058 65.908 121.554 66.046 121.098 66.322C120.654 66.586 120.3 66.946 120.036 67.402C119.784 67.846 119.658 68.356 119.658 68.932C119.658 69.496 119.784 70.012 120.036 70.48C120.3 70.936 120.654 71.296 121.098 71.56C121.554 71.824 122.058 71.956 122.61 71.956ZM130.303 73.18C130.003 73.18 129.757 73.078 129.565 72.874C129.373 72.67 129.277 72.424 129.277 72.136C129.277 71.848 129.373 71.608 129.565 71.416C129.757 71.212 130.003 71.11 130.303 71.11C130.591 71.11 130.831 71.212 131.023 71.416C131.215 71.608 131.311 71.848 131.311 72.136C131.311 72.424 131.215 72.67 131.023 72.874C130.831 73.078 130.591 73.18 130.303 73.18ZM137.864 73.18C137.06 73.18 136.346 73.024 135.722 72.712C135.11 72.4 134.63 71.974 134.282 71.434C133.934 70.882 133.76 70.258 133.76 69.562C133.76 69.01 133.868 68.506 134.084 68.05C134.312 67.582 134.63 67.186 135.038 66.862C135.446 66.526 135.92 66.298 136.46 66.178L136.604 66.556C136.124 66.424 135.716 66.214 135.38 65.926C135.044 65.638 134.786 65.296 134.606 64.9C134.426 64.492 134.336 64.066 134.336 63.622C134.336 62.986 134.486 62.434 134.786 61.966C135.098 61.486 135.518 61.108 136.046 60.832C136.586 60.556 137.192 60.418 137.864 60.418C138.548 60.418 139.154 60.556 139.682 60.832C140.222 61.108 140.642 61.486 140.942 61.966C141.242 62.434 141.392 62.986 141.392 63.622C141.392 64.066 141.302 64.492 141.122 64.9C140.954 65.296 140.702 65.638 140.366 65.926C140.03 66.214 139.616 66.424 139.124 66.556L139.268 66.178C139.82 66.298 140.294 66.526 140.69 66.862C141.098 67.186 141.41 67.582 141.626 68.05C141.854 68.506 141.968 69.01 141.968 69.562C141.968 70.258 141.794 70.882 141.446 71.434C141.11 71.974 140.63 72.4 140.006 72.712C139.394 73.024 138.68 73.18 137.864 73.18ZM137.864 71.992C138.416 71.992 138.902 71.884 139.322 71.668C139.754 71.452 140.09 71.152 140.33 70.768C140.57 70.372 140.69 69.928 140.69 69.436C140.69 68.932 140.57 68.494 140.33 68.122C140.09 67.738 139.754 67.438 139.322 67.222C138.902 66.994 138.416 66.88 137.864 66.88C137.324 66.88 136.838 66.994 136.406 67.222C135.986 67.438 135.65 67.738 135.398 68.122C135.158 68.494 135.038 68.932 135.038 69.436C135.038 69.928 135.158 70.372 135.398 70.768C135.65 71.152 135.986 71.452 136.406 71.668C136.826 71.884 137.312 71.992 137.864 71.992ZM137.864 65.854C138.536 65.854 139.082 65.656 139.502 65.26C139.934 64.852 140.15 64.33 140.15 63.694C140.15 63.058 139.934 62.542 139.502 62.146C139.082 61.75 138.536 61.552 137.864 61.552C137.204 61.552 136.658 61.75 136.226 62.146C135.794 62.542 135.578 63.058 135.578 63.694C135.578 64.33 135.794 64.852 136.226 65.26C136.658 65.656 137.204 65.854 137.864 65.854ZM148.426 73L143.494 60.616H144.934L149.2 71.542H148.678L152.98 60.616H154.384L149.416 73H148.426ZM160.19 69.04V67.834H165.932V69.04H160.19ZM175.523 73.18C174.707 73.18 173.975 73.024 173.327 72.712C172.679 72.4 172.133 71.95 171.689 71.362L172.571 70.48C172.871 70.936 173.273 71.296 173.777 71.56C174.293 71.812 174.869 71.938 175.505 71.938C176.105 71.938 176.633 71.824 177.089 71.596C177.545 71.356 177.899 71.026 178.151 70.606C178.415 70.174 178.547 69.67 178.547 69.094C178.547 68.506 178.421 68.002 178.169 67.582C177.917 67.15 177.575 66.82 177.143 66.592C176.711 66.364 176.225 66.25 175.685 66.25C175.169 66.25 174.695 66.322 174.263 66.466C173.843 66.598 173.459 66.814 173.111 67.114L173.075 66.25C173.291 66.01 173.537 65.812 173.813 65.656C174.089 65.5 174.395 65.38 174.731 65.296C175.079 65.212 175.463 65.17 175.883 65.17C176.711 65.17 177.425 65.35 178.025 65.71C178.625 66.058 179.081 66.532 179.393 67.132C179.717 67.732 179.879 68.41 179.879 69.166C179.879 69.946 179.693 70.636 179.321 71.236C178.949 71.836 178.433 72.31 177.773 72.658C177.125 73.006 176.375 73.18 175.523 73.18ZM173.111 67.114L172.409 66.394L172.949 60.616H174.155L173.561 66.52L173.111 67.114ZM173.273 61.786L172.949 60.616H179.321V61.786H173.273ZM182.919 73L187.671 61.354L188.949 61.444L184.287 73H182.919ZM180.777 61.786V60.616H188.949V61.444L188.373 61.786H180.777ZM190.983 73.18C190.683 73.18 190.437 73.078 190.245 72.874C190.053 72.67 189.957 72.424 189.957 72.136C189.957 71.848 190.053 71.608 190.245 71.416C190.437 71.212 190.683 71.11 190.983 71.11C191.271 71.11 191.511 71.212 191.703 71.416C191.895 71.608 191.991 71.848 191.991 72.136C191.991 72.424 191.895 72.67 191.703 72.874C191.511 73.078 191.271 73.18 190.983 73.18ZM198.09 73.18C197.298 73.18 196.578 72.994 195.93 72.622C195.294 72.238 194.784 71.728 194.4 71.092C194.028 70.456 193.842 69.748 193.842 68.968C193.842 67.912 194.208 66.88 194.94 65.872L198.828 60.616H200.376L196.524 65.71L196.056 65.89C196.224 65.674 196.416 65.494 196.632 65.35C196.86 65.194 197.118 65.074 197.406 64.99C197.694 64.906 198.024 64.864 198.396 64.864C199.128 64.864 199.794 65.044 200.394 65.404C200.994 65.752 201.474 66.232 201.834 66.844C202.194 67.456 202.374 68.152 202.374 68.932C202.374 69.712 202.182 70.426 201.798 71.074C201.414 71.71 200.898 72.22 200.25 72.604C199.602 72.988 198.882 73.18 198.09 73.18ZM198.108 71.956C198.648 71.956 199.14 71.824 199.584 71.56C200.04 71.284 200.4 70.918 200.664 70.462C200.928 69.994 201.06 69.484 201.06 68.932C201.06 68.368 200.928 67.858 200.664 67.402C200.4 66.946 200.04 66.586 199.584 66.322C199.14 66.046 198.648 65.908 198.108 65.908C197.556 65.908 197.052 66.046 196.596 66.322C196.152 66.586 195.798 66.946 195.534 67.402C195.282 67.846 195.156 68.356 195.156 68.932C195.156 69.496 195.282 70.012 195.534 70.48C195.798 70.936 196.152 71.296 196.596 71.56C197.052 71.824 197.556 71.956 198.108 71.956ZM208.789 73L203.857 60.616H205.297L209.563 71.542H209.041L213.343 60.616H214.747L209.779 73H208.789ZM226.709 73V68.032C226.709 67.288 226.487 66.688 226.043 66.232C225.611 65.764 225.035 65.53 224.315 65.53C223.823 65.53 223.391 65.638 223.019 65.854C222.647 66.07 222.353 66.364 222.137 66.736C221.921 67.108 221.813 67.534 221.813 68.014L221.237 67.69C221.237 67.054 221.387 66.484 221.687 65.98C221.987 65.476 222.389 65.08 222.893 64.792C223.409 64.504 223.997 64.36 224.657 64.36C225.305 64.36 225.881 64.516 226.385 64.828C226.889 65.14 227.279 65.56 227.555 66.088C227.843 66.616 227.987 67.192 227.987 67.816V73H226.709ZM220.553 73V64.54H221.813V73H220.553ZM234.178 73.18C233.362 73.18 232.618 72.982 231.946 72.586C231.286 72.19 230.758 71.656 230.362 70.984C229.978 70.312 229.786 69.562 229.786 68.734C229.786 67.918 229.978 67.18 230.362 66.52C230.758 65.86 231.286 65.338 231.946 64.954C232.618 64.558 233.362 64.36 234.178 64.36C235.006 64.36 235.75 64.552 236.41 64.936C237.07 65.32 237.592 65.848 237.976 66.52C238.372 67.18 238.57 67.918 238.57 68.734C238.57 69.574 238.372 70.33 237.976 71.002C237.592 71.662 237.07 72.19 236.41 72.586C235.75 72.982 235.006 73.18 234.178 73.18ZM234.178 71.956C234.778 71.956 235.306 71.818 235.762 71.542C236.23 71.266 236.596 70.882 236.86 70.39C237.136 69.898 237.274 69.346 237.274 68.734C237.274 68.122 237.136 67.582 236.86 67.114C236.596 66.634 236.23 66.256 235.762 65.98C235.306 65.704 234.778 65.566 234.178 65.566C233.59 65.566 233.062 65.704 232.594 65.98C232.126 66.256 231.76 66.634 231.496 67.114C231.232 67.582 231.1 68.122 231.1 68.734C231.1 69.358 231.232 69.916 231.496 70.408C231.76 70.888 232.126 71.266 232.594 71.542C233.062 71.818 233.59 71.956 234.178 71.956ZM240.575 73V64.54H241.835V73H240.575ZM246.389 73V67.816C246.389 67.12 246.179 66.568 245.759 66.16C245.339 65.74 244.811 65.53 244.175 65.53C243.743 65.53 243.347 65.626 242.987 65.818C242.639 65.998 242.357 66.256 242.141 66.592C241.937 66.928 241.835 67.33 241.835 67.798L241.259 67.564C241.259 66.916 241.403 66.352 241.691 65.872C241.979 65.392 242.363 65.02 242.843 64.756C243.335 64.492 243.887 64.36 244.499 64.36C245.099 64.36 245.633 64.492 246.101 64.756C246.581 65.02 246.959 65.392 247.235 65.872C247.523 66.352 247.667 66.922 247.667 67.582V73H246.389ZM252.221 73V67.816C252.221 67.12 252.011 66.568 251.591 66.16C251.171 65.74 250.637 65.53 249.989 65.53C249.569 65.53 249.179 65.626 248.819 65.818C248.471 65.998 248.189 66.256 247.973 66.592C247.769 66.928 247.667 67.33 247.667 67.798L246.911 67.564C246.947 66.916 247.115 66.352 247.415 65.872C247.727 65.392 248.129 65.02 248.621 64.756C249.125 64.492 249.677 64.36 250.277 64.36C250.877 64.36 251.417 64.492 251.897 64.756C252.389 65.02 252.773 65.392 253.049 65.872C253.337 66.352 253.481 66.922 253.481 67.582V73H252.221ZM255.85 73V64.54H257.128V73H255.85ZM256.48 62.704C256.24 62.704 256.036 62.62 255.868 62.452C255.7 62.272 255.616 62.062 255.616 61.822C255.616 61.57 255.7 61.36 255.868 61.192C256.036 61.024 256.24 60.94 256.48 60.94C256.744 60.94 256.954 61.024 257.11 61.192C257.278 61.36 257.362 61.57 257.362 61.822C257.362 62.062 257.278 62.272 257.11 62.452C256.954 62.62 256.744 62.704 256.48 62.704ZM265.838 73V68.032C265.838 67.288 265.616 66.688 265.172 66.232C264.74 65.764 264.164 65.53 263.444 65.53C262.952 65.53 262.52 65.638 262.148 65.854C261.776 66.07 261.482 66.364 261.266 66.736C261.05 67.108 260.942 67.534 260.942 68.014L260.366 67.69C260.366 67.054 260.516 66.484 260.816 65.98C261.116 65.476 261.518 65.08 262.022 64.792C262.538 64.504 263.126 64.36 263.786 64.36C264.434 64.36 265.01 64.516 265.514 64.828C266.018 65.14 266.408 65.56 266.684 66.088C266.972 66.616 267.116 67.192 267.116 67.816V73H265.838ZM259.682 73V64.54H260.942V73H259.682ZM273.145 73.18C272.341 73.18 271.621 72.988 270.985 72.604C270.349 72.208 269.845 71.68 269.473 71.02C269.113 70.36 268.933 69.616 268.933 68.788C268.933 67.948 269.113 67.198 269.473 66.538C269.845 65.866 270.349 65.338 270.985 64.954C271.621 64.558 272.335 64.36 273.127 64.36C273.775 64.36 274.351 64.492 274.855 64.756C275.371 65.008 275.785 65.368 276.097 65.836C276.421 66.292 276.619 66.826 276.691 67.438V70.084C276.619 70.696 276.421 71.236 276.097 71.704C275.785 72.172 275.371 72.538 274.855 72.802C274.351 73.054 273.781 73.18 273.145 73.18ZM273.343 71.974C274.219 71.974 274.921 71.68 275.449 71.092C275.989 70.504 276.259 69.73 276.259 68.77C276.259 68.134 276.133 67.576 275.881 67.096C275.641 66.604 275.299 66.226 274.855 65.962C274.423 65.686 273.913 65.548 273.325 65.548C272.725 65.548 272.191 65.686 271.723 65.962C271.267 66.238 270.901 66.622 270.625 67.114C270.361 67.594 270.229 68.146 270.229 68.77C270.229 69.394 270.361 69.946 270.625 70.426C270.901 70.906 271.273 71.284 271.741 71.56C272.209 71.836 272.743 71.974 273.343 71.974ZM276.187 73V70.732L276.439 68.644L276.187 66.61V64.54H277.447V73H276.187ZM280.003 73V60.256H281.263V73H280.003Z" fill="white"/>
<path d="M37.698 101L33.702 88.616H35.016L38.382 99.272H37.986L41.316 88.616H42.306L45.654 99.272H45.24L48.606 88.616H49.938L45.924 101H44.952L41.622 90.362H42L38.67 101H37.698ZM54.1746 101.18C53.3706 101.18 52.6506 100.988 52.0146 100.604C51.3786 100.208 50.8746 99.68 50.5026 99.02C50.1426 98.36 49.9626 97.616 49.9626 96.788C49.9626 95.948 50.1426 95.198 50.5026 94.538C50.8746 93.866 51.3786 93.338 52.0146 92.954C52.6506 92.558 53.3646 92.36 54.1566 92.36C54.8046 92.36 55.3806 92.492 55.8846 92.756C56.4006 93.008 56.8146 93.368 57.1266 93.836C57.4506 94.292 57.6486 94.826 57.7206 95.438V98.084C57.6486 98.696 57.4506 99.236 57.1266 99.704C56.8146 100.172 56.4006 100.538 55.8846 100.802C55.3806 101.054 54.8106 101.18 54.1746 101.18ZM54.3726 99.974C55.2486 99.974 55.9506 99.68 56.4786 99.092C57.0186 98.504 57.2886 97.73 57.2886 96.77C57.2886 96.134 57.1626 95.576 56.9106 95.096C56.6706 94.604 56.3286 94.226 55.8846 93.962C55.4526 93.686 54.9426 93.548 54.3546 93.548C53.7546 93.548 53.2206 93.686 52.7526 93.962C52.2966 94.238 51.9306 94.622 51.6546 95.114C51.3906 95.594 51.2586 96.146 51.2586 96.77C51.2586 97.394 51.3906 97.946 51.6546 98.426C51.9306 98.906 52.3026 99.284 52.7706 99.56C53.2386 99.836 53.7726 99.974 54.3726 99.974ZM57.2166 101V98.732L57.4686 96.644L57.2166 94.61V92.54H58.4766V101H57.2166ZM61.0319 101V92.54H62.2919V101H61.0319ZM62.2919 96.068L61.7699 95.834C61.7699 94.766 62.0279 93.92 62.5439 93.296C63.0719 92.672 63.7919 92.36 64.7039 92.36C65.1239 92.36 65.5079 92.438 65.8559 92.594C66.2039 92.738 66.5279 92.972 66.8279 93.296L65.9999 94.178C65.7959 93.95 65.5679 93.788 65.3159 93.692C65.0759 93.596 64.7999 93.548 64.4879 93.548C63.8399 93.548 63.3119 93.764 62.9039 94.196C62.4959 94.616 62.2919 95.24 62.2919 96.068ZM68.2389 101V92.54H69.4989V101H68.2389ZM69.4989 96.068L68.9769 95.834C68.9769 94.766 69.2349 93.92 69.7509 93.296C70.2789 92.672 70.9989 92.36 71.9109 92.36C72.3309 92.36 72.7149 92.438 73.0629 92.594C73.4109 92.738 73.7349 92.972 74.0349 93.296L73.2069 94.178C73.0029 93.95 72.7749 93.788 72.5229 93.692C72.2829 93.596 72.0069 93.548 71.6949 93.548C71.0469 93.548 70.5189 93.764 70.1109 94.196C69.7029 94.616 69.4989 95.24 69.4989 96.068ZM78.7488 101.18C77.9448 101.18 77.2248 100.988 76.5888 100.604C75.9528 100.208 75.4488 99.68 75.0768 99.02C74.7168 98.36 74.5368 97.616 74.5368 96.788C74.5368 95.948 74.7168 95.198 75.0768 94.538C75.4488 93.866 75.9528 93.338 76.5888 92.954C77.2248 92.558 77.9388 92.36 78.7308 92.36C79.3788 92.36 79.9548 92.492 80.4588 92.756C80.9748 93.008 81.3888 93.368 81.7008 93.836C82.0248 94.292 82.2228 94.826 82.2948 95.438V98.084C82.2228 98.696 82.0248 99.236 81.7008 99.704C81.3888 100.172 80.9748 100.538 80.4588 100.802C79.9548 101.054 79.3848 101.18 78.7488 101.18ZM78.9468 99.974C79.8228 99.974 80.5248 99.68 81.0528 99.092C81.5928 98.504 81.8628 97.73 81.8628 96.77C81.8628 96.134 81.7368 95.576 81.4848 95.096C81.2448 94.604 80.9028 94.226 80.4588 93.962C80.0268 93.686 79.5168 93.548 78.9288 93.548C78.3288 93.548 77.7948 93.686 77.3268 93.962C76.8708 94.238 76.5048 94.622 76.2288 95.114C75.9648 95.594 75.8328 96.146 75.8328 96.77C75.8328 97.394 75.9648 97.946 76.2288 98.426C76.5048 98.906 76.8768 99.284 77.3448 99.56C77.8128 99.836 78.3468 99.974 78.9468 99.974ZM81.7908 101V98.732L82.0428 96.644L81.7908 94.61V92.54H83.0508V101H81.7908ZM91.7621 101V96.032C91.7621 95.288 91.5401 94.688 91.0961 94.232C90.6641 93.764 90.0881 93.53 89.3681 93.53C88.8761 93.53 88.4441 93.638 88.0721 93.854C87.7001 94.07 87.4061 94.364 87.1901 94.736C86.9741 95.108 86.8661 95.534 86.8661 96.014L86.2901 95.69C86.2901 95.054 86.4401 94.484 86.7401 93.98C87.0401 93.476 87.4421 93.08 87.9461 92.792C88.4621 92.504 89.0501 92.36 89.7101 92.36C90.3581 92.36 90.9341 92.516 91.4381 92.828C91.9421 93.14 92.3321 93.56 92.6081 94.088C92.8961 94.616 93.0401 95.192 93.0401 95.816V101H91.7621ZM85.6061 101V92.54H86.8661V101H85.6061ZM96.6057 101V88.976H97.8657V101H96.6057ZM94.4637 93.674V92.54H99.9897V93.674H94.4637ZM104.551 101.036L100.843 92.54H102.229L105.217 99.632H104.695L107.845 92.54H109.249L105.271 101.036H104.551ZM102.247 104.564L104.569 99.758L105.271 101.036L103.633 104.564H102.247ZM115.92 101.18C115.62 101.18 115.374 101.078 115.182 100.874C115.002 100.67 114.912 100.43 114.912 100.154C114.912 99.854 115.002 99.608 115.182 99.416C115.374 99.212 115.62 99.11 115.92 99.11C116.208 99.11 116.448 99.212 116.64 99.416C116.844 99.608 116.946 99.854 116.946 100.154C116.946 100.43 116.844 100.67 116.64 100.874C116.448 101.078 116.208 101.18 115.92 101.18ZM115.92 95.51C115.62 95.51 115.374 95.408 115.182 95.204C115.002 95 114.912 94.76 114.912 94.484C114.912 94.184 115.002 93.938 115.182 93.746C115.374 93.554 115.62 93.458 115.92 93.458C116.208 93.458 116.448 93.554 116.64 93.746C116.844 93.938 116.946 94.184 116.946 94.484C116.946 94.76 116.844 95 116.64 95.204C116.448 95.408 116.208 95.51 115.92 95.51ZM126.673 101.18C125.881 101.18 125.155 101.024 124.495 100.712C123.847 100.4 123.301 99.95 122.857 99.362L123.739 98.48C124.039 98.936 124.447 99.296 124.963 99.56C125.479 99.812 126.043 99.938 126.655 99.938C127.255 99.938 127.771 99.824 128.203 99.596C128.647 99.368 128.989 99.05 129.229 98.642C129.481 98.222 129.607 97.736 129.607 97.184C129.607 96.62 129.481 96.134 129.229 95.726C128.989 95.318 128.641 95 128.185 94.772C127.741 94.544 127.207 94.43 126.583 94.43C126.379 94.43 126.169 94.442 125.953 94.466C125.749 94.49 125.545 94.532 125.341 94.592L125.845 93.854C126.049 93.746 126.271 93.662 126.511 93.602C126.751 93.542 127.015 93.512 127.303 93.512C127.987 93.512 128.605 93.674 129.157 93.998C129.709 94.31 130.141 94.748 130.453 95.312C130.777 95.864 130.939 96.506 130.939 97.238C130.939 98.018 130.759 98.702 130.399 99.29C130.039 99.878 129.535 100.34 128.887 100.676C128.251 101.012 127.513 101.18 126.673 101.18ZM125.341 94.592V93.782L129.265 89.372L130.795 89.426L126.799 93.89L125.341 94.592ZM123.397 89.786V88.616H130.795V89.426L129.661 89.786H123.397ZM135.946 101.036L132.238 92.54H133.624L136.612 99.632H136.09L139.24 92.54H140.644L136.666 101.036H135.946ZM133.642 104.564L135.964 99.758L136.666 101.036L135.028 104.564H133.642ZM142.085 101V92.54H143.345V101H142.085ZM143.345 96.068L142.823 95.834C142.823 94.766 143.081 93.92 143.597 93.296C144.125 92.672 144.845 92.36 145.757 92.36C146.177 92.36 146.561 92.438 146.909 92.594C147.257 92.738 147.581 92.972 147.881 93.296L147.053 94.178C146.849 93.95 146.621 93.788 146.369 93.692C146.129 93.596 145.853 93.548 145.541 93.548C144.893 93.548 144.365 93.764 143.957 94.196C143.549 94.616 143.345 95.24 143.345 96.068ZM151.62 101.18C151.164 101.18 150.726 101.12 150.306 101C149.886 100.868 149.502 100.688 149.154 100.46C148.818 100.232 148.524 99.962 148.272 99.65L149.082 98.822C149.418 99.23 149.796 99.536 150.216 99.74C150.648 99.932 151.128 100.028 151.656 100.028C152.22 100.028 152.658 99.92 152.97 99.704C153.294 99.488 153.456 99.188 153.456 98.804C153.456 98.444 153.342 98.162 153.114 97.958C152.886 97.754 152.592 97.592 152.232 97.472C151.884 97.352 151.512 97.238 151.116 97.13C150.72 97.01 150.342 96.866 149.982 96.698C149.622 96.518 149.328 96.272 149.1 95.96C148.884 95.648 148.776 95.24 148.776 94.736C148.776 94.256 148.89 93.842 149.118 93.494C149.358 93.134 149.694 92.858 150.126 92.666C150.57 92.462 151.092 92.36 151.692 92.36C152.328 92.36 152.904 92.474 153.42 92.702C153.936 92.93 154.35 93.266 154.662 93.71L153.852 94.52C153.6 94.196 153.282 93.95 152.898 93.782C152.526 93.602 152.106 93.512 151.638 93.512C151.098 93.512 150.684 93.62 150.396 93.836C150.12 94.04 149.982 94.31 149.982 94.646C149.982 94.97 150.096 95.228 150.324 95.42C150.552 95.6 150.84 95.75 151.188 95.87C151.548 95.978 151.926 96.092 152.322 96.212C152.718 96.32 153.096 96.47 153.456 96.662C153.816 96.842 154.104 97.094 154.32 97.418C154.548 97.73 154.662 98.156 154.662 98.696C154.662 99.452 154.386 100.058 153.834 100.514C153.294 100.958 152.556 101.18 151.62 101.18ZM159.606 101.72L164.538 87.95H165.726L160.794 101.72H159.606ZM175.027 101.18C174.235 101.18 173.515 100.994 172.867 100.622C172.231 100.238 171.721 99.728 171.337 99.092C170.965 98.456 170.779 97.748 170.779 96.968C170.779 95.912 171.145 94.88 171.877 93.872L175.765 88.616H177.313L173.461 93.71L172.993 93.89C173.161 93.674 173.353 93.494 173.569 93.35C173.797 93.194 174.055 93.074 174.343 92.99C174.631 92.906 174.961 92.864 175.333 92.864C176.065 92.864 176.731 93.044 177.331 93.404C177.931 93.752 178.411 94.232 178.771 94.844C179.131 95.456 179.311 96.152 179.311 96.932C179.311 97.712 179.119 98.426 178.735 99.074C178.351 99.71 177.835 100.22 177.187 100.604C176.539 100.988 175.819 101.18 175.027 101.18ZM175.045 99.956C175.585 99.956 176.077 99.824 176.521 99.56C176.977 99.284 177.337 98.918 177.601 98.462C177.865 97.994 177.997 97.484 177.997 96.932C177.997 96.368 177.865 95.858 177.601 95.402C177.337 94.946 176.977 94.586 176.521 94.322C176.077 94.046 175.585 93.908 175.045 93.908C174.493 93.908 173.989 94.046 173.533 94.322C173.089 94.586 172.735 94.946 172.471 95.402C172.219 95.846 172.093 96.356 172.093 96.932C172.093 97.496 172.219 98.012 172.471 98.48C172.735 98.936 173.089 99.296 173.533 99.56C173.989 99.824 174.493 99.956 175.045 99.956ZM184.593 101.18C183.777 101.18 183.045 101.024 182.397 100.712C181.749 100.4 181.203 99.95 180.759 99.362L181.641 98.48C181.941 98.936 182.343 99.296 182.847 99.56C183.363 99.812 183.939 99.938 184.575 99.938C185.175 99.938 185.703 99.824 186.159 99.596C186.615 99.356 186.969 99.026 187.221 98.606C187.485 98.174 187.617 97.67 187.617 97.094C187.617 96.506 187.491 96.002 187.239 95.582C186.987 95.15 186.645 94.82 186.213 94.592C185.781 94.364 185.295 94.25 184.755 94.25C184.239 94.25 183.765 94.322 183.333 94.466C182.913 94.598 182.529 94.814 182.181 95.114L182.145 94.25C182.361 94.01 182.607 93.812 182.883 93.656C183.159 93.5 183.465 93.38 183.801 93.296C184.149 93.212 184.533 93.17 184.953 93.17C185.781 93.17 186.495 93.35 187.095 93.71C187.695 94.058 188.151 94.532 188.463 95.132C188.787 95.732 188.949 96.41 188.949 97.166C188.949 97.946 188.763 98.636 188.391 99.236C188.019 99.836 187.503 100.31 186.843 100.658C186.195 101.006 185.445 101.18 184.593 101.18ZM182.181 95.114L181.479 94.394L182.019 88.616H183.225L182.631 94.52L182.181 95.114ZM182.343 89.786L182.019 88.616H188.391V89.786H182.343ZM190.71 102.854L191.736 100.856L192.186 100.748C192.138 100.856 192.072 100.946 191.988 101.018C191.904 101.102 191.802 101.144 191.682 101.144C191.454 101.144 191.244 101.054 191.052 100.874C190.872 100.682 190.782 100.448 190.782 100.172C190.782 99.884 190.884 99.638 191.088 99.434C191.292 99.218 191.538 99.11 191.826 99.11C192.102 99.11 192.342 99.218 192.546 99.434C192.762 99.638 192.87 99.884 192.87 100.172C192.87 100.292 192.846 100.436 192.798 100.604C192.762 100.76 192.678 100.97 192.546 101.234L191.466 103.268L190.71 102.854ZM199.586 101.18C198.674 101.18 197.84 100.922 197.084 100.406C196.328 99.878 195.722 99.134 195.266 98.174C194.822 97.214 194.6 96.086 194.6 94.79C194.6 93.482 194.822 92.36 195.266 91.424C195.71 90.476 196.304 89.744 197.048 89.228C197.804 88.7 198.638 88.436 199.55 88.436C200.474 88.436 201.308 88.694 202.052 89.21C202.808 89.726 203.408 90.464 203.852 91.424C204.296 92.372 204.518 93.5 204.518 94.808C204.518 96.104 204.296 97.232 203.852 98.192C203.408 99.152 202.814 99.89 202.07 100.406C201.326 100.922 200.498 101.18 199.586 101.18ZM199.55 99.938C200.258 99.938 200.882 99.74 201.422 99.344C201.974 98.936 202.406 98.354 202.718 97.598C203.03 96.83 203.186 95.894 203.186 94.79C203.186 93.698 203.03 92.774 202.718 92.018C202.406 91.25 201.974 90.668 201.422 90.272C200.882 89.876 200.258 89.678 199.55 89.678C198.854 89.678 198.23 89.876 197.678 90.272C197.138 90.668 196.712 91.244 196.4 92C196.088 92.756 195.932 93.686 195.932 94.79C195.932 95.894 196.088 96.83 196.4 97.598C196.712 98.354 197.138 98.936 197.678 99.344C198.23 99.74 198.854 99.938 199.55 99.938ZM211.417 101.18C210.505 101.18 209.671 100.922 208.915 100.406C208.159 99.878 207.553 99.134 207.097 98.174C206.653 97.214 206.431 96.086 206.431 94.79C206.431 93.482 206.653 92.36 207.097 91.424C207.541 90.476 208.135 89.744 208.879 89.228C209.635 88.7 210.469 88.436 211.381 88.436C212.305 88.436 213.139 88.694 213.883 89.21C214.639 89.726 215.239 90.464 215.683 91.424C216.127 92.372 216.349 93.5 216.349 94.808C216.349 96.104 216.127 97.232 215.683 98.192C215.239 99.152 214.645 99.89 213.901 100.406C213.157 100.922 212.329 101.18 211.417 101.18ZM211.381 99.938C212.089 99.938 212.713 99.74 213.253 99.344C213.805 98.936 214.237 98.354 214.549 97.598C214.861 96.83 215.017 95.894 215.017 94.79C215.017 93.698 214.861 92.774 214.549 92.018C214.237 91.25 213.805 90.668 213.253 90.272C212.713 89.876 212.089 89.678 211.381 89.678C210.685 89.678 210.061 89.876 209.509 90.272C208.969 90.668 208.543 91.244 208.231 92C207.919 92.756 207.763 93.686 207.763 94.79C207.763 95.894 207.919 96.83 208.231 97.598C208.543 98.354 208.969 98.936 209.509 99.344C210.061 99.74 210.685 99.938 211.381 99.938ZM223.247 101.18C222.335 101.18 221.501 100.922 220.745 100.406C219.989 99.878 219.383 99.134 218.927 98.174C218.483 97.214 218.261 96.086 218.261 94.79C218.261 93.482 218.483 92.36 218.927 91.424C219.371 90.476 219.965 89.744 220.709 89.228C221.465 88.7 222.299 88.436 223.211 88.436C224.135 88.436 224.969 88.694 225.713 89.21C226.469 89.726 227.069 90.464 227.513 91.424C227.957 92.372 228.179 93.5 228.179 94.808C228.179 96.104 227.957 97.232 227.513 98.192C227.069 99.152 226.475 99.89 225.731 100.406C224.987 100.922 224.159 101.18 223.247 101.18ZM223.211 99.938C223.919 99.938 224.543 99.74 225.083 99.344C225.635 98.936 226.067 98.354 226.379 97.598C226.691 96.83 226.847 95.894 226.847 94.79C226.847 93.698 226.691 92.774 226.379 92.018C226.067 91.25 225.635 90.668 225.083 90.272C224.543 89.876 223.919 89.678 223.211 89.678C222.515 89.678 221.891 89.876 221.339 90.272C220.799 90.668 220.373 91.244 220.061 92C219.749 92.756 219.593 93.686 219.593 94.79C219.593 95.894 219.749 96.83 220.061 97.598C220.373 98.354 220.799 98.936 221.339 99.344C221.891 99.74 222.515 99.938 223.211 99.938ZM239.736 101L235.416 96.662L239.664 92.54H241.23L236.604 96.986L236.64 96.266L241.41 101H239.736ZM234.282 101V88.256H235.542V101H234.282ZM242.719 101V92.54H243.979V101H242.719ZM248.533 101V95.816C248.533 95.12 248.323 94.568 247.903 94.16C247.483 93.74 246.955 93.53 246.319 93.53C245.887 93.53 245.491 93.626 245.131 93.818C244.783 93.998 244.501 94.256 244.285 94.592C244.081 94.928 243.979 95.33 243.979 95.798L243.403 95.564C243.403 94.916 243.547 94.352 243.835 93.872C244.123 93.392 244.507 93.02 244.987 92.756C245.479 92.492 246.031 92.36 246.643 92.36C247.243 92.36 247.777 92.492 248.245 92.756C248.725 93.02 249.103 93.392 249.379 93.872C249.667 94.352 249.811 94.922 249.811 95.582V101H248.533ZM254.365 101V95.816C254.365 95.12 254.155 94.568 253.735 94.16C253.315 93.74 252.781 93.53 252.133 93.53C251.713 93.53 251.323 93.626 250.963 93.818C250.615 93.998 250.333 94.256 250.117 94.592C249.913 94.928 249.811 95.33 249.811 95.798L249.055 95.564C249.091 94.916 249.259 94.352 249.559 93.872C249.871 93.392 250.273 93.02 250.765 92.756C251.269 92.492 251.821 92.36 252.421 92.36C253.021 92.36 253.561 92.492 254.041 92.756C254.533 93.02 254.917 93.392 255.193 93.872C255.481 94.352 255.625 94.922 255.625 95.582V101H254.365ZM260.587 101.18C260.131 101.18 259.693 101.12 259.273 101C258.853 100.868 258.469 100.688 258.121 100.46C257.785 100.232 257.491 99.962 257.239 99.65L258.049 98.822C258.385 99.23 258.763 99.536 259.183 99.74C259.615 99.932 260.095 100.028 260.623 100.028C261.187 100.028 261.625 99.92 261.937 99.704C262.261 99.488 262.423 99.188 262.423 98.804C262.423 98.444 262.309 98.162 262.081 97.958C261.853 97.754 261.559 97.592 261.199 97.472C260.851 97.352 260.479 97.238 260.083 97.13C259.687 97.01 259.309 96.866 258.949 96.698C258.589 96.518 258.295 96.272 258.067 95.96C257.851 95.648 257.743 95.24 257.743 94.736C257.743 94.256 257.857 93.842 258.085 93.494C258.325 93.134 258.661 92.858 259.093 92.666C259.537 92.462 260.059 92.36 260.659 92.36C261.295 92.36 261.871 92.474 262.387 92.702C262.903 92.93 263.317 93.266 263.629 93.71L262.819 94.52C262.567 94.196 262.249 93.95 261.865 93.782C261.493 93.602 261.073 93.512 260.605 93.512C260.065 93.512 259.651 93.62 259.363 93.836C259.087 94.04 258.949 94.31 258.949 94.646C258.949 94.97 259.063 95.228 259.291 95.42C259.519 95.6 259.807 95.75 260.155 95.87C260.515 95.978 260.893 96.092 261.289 96.212C261.685 96.32 262.063 96.47 262.423 96.662C262.783 96.842 263.071 97.094 263.287 97.418C263.515 97.73 263.629 98.156 263.629 98.696C263.629 99.452 263.353 100.058 262.801 100.514C262.261 100.958 261.523 101.18 260.587 101.18Z" fill="white"/>
</svg>
